<svg xmlns="http://www.w3.org/2000/svg" version="1.1" xmlns:xlink="http://www.w3.org/1999/xlink" xmlns:svgjs="http://svgjs.com/svgjs" width="512" height="512" x="0" y="0" viewBox="0 0 396.657 396.657" style="enable-background:new 0 0 512 512" xml:space="preserve" class=""><g><g xmlns="http://www.w3.org/2000/svg"><g><g><path d="m309.258 246.062c-2.689 0-5.378-1.345-6.051-4.034-1.345-3.361 0-7.395 4.034-8.74 30.253-12.101 50.422-41.01 50.422-73.953 0-34.96-53.112-108.24-80.004-141.183-9.412 11.429-28.909 36.977-46.389 63.868-2.017 3.362-6.051 4.034-9.412 2.017-3.362-2.017-4.034-6.051-2.017-9.412 24.203-37.649 52.439-71.936 52.439-71.936 1.346-1.344 3.363-2.689 5.38-2.689 2.017 0 4.034.672 5.378 2.689 3.361 4.034 88.071 106.896 88.071 155.974 0 38.321-22.858 72.608-58.49 86.727-1.344 0-2.016.672-3.361.672z" fill="#ffffff" data-original="#000000" class=""></path></g><g><path d="m171.437 396.657c-80.004 0-145.889-65.213-145.889-145.889 0-77.987 134.46-241.356 140.511-248.079 2.689-3.362 8.068-3.362 10.084 0 6.051 6.723 140.511 170.092 140.511 248.079.672 80.676-64.541 145.889-145.217 145.889zm0-379.177c-24.876 30.926-132.444 168.075-132.444 233.288 0 72.608 59.162 132.443 132.443 132.443s132.444-59.162 132.444-132.443c0-65.213-107.568-202.362-132.443-233.288z" fill="#ffffff" data-original="#000000" class=""></path></g><g><path d="m112.946 317.998c-2.017 0-3.361-.672-4.706-2.017-2.689-2.689-2.689-6.723 0-9.412l129.754-132.443c2.689-2.689 6.723-2.689 9.412 0s2.689 6.723 0 9.412l-129.753 132.443c-1.345 1.345-3.362 2.017-4.707 2.017z" fill="#ffffff" data-original="#000000" class=""></path></g><g><path d="m127.065 233.288c-19.497 0-34.96-15.463-34.96-34.96s15.463-34.96 34.96-34.96 34.96 15.463 34.96 34.96-16.136 34.96-34.96 34.96zm0-56.473c-12.101 0-21.514 9.412-21.514 21.514s9.412 21.514 21.514 21.514 21.514-9.412 21.514-21.514-10.085-21.514-21.514-21.514z" fill="#ffffff" data-original="#000000" class=""></path></g><g><path d="m224.548 330.772c-19.497 0-34.96-15.463-34.96-34.96s15.463-34.96 34.96-34.96 34.96 15.463 34.96 34.96-15.463 34.96-34.96 34.96zm0-55.801c-12.101 0-21.514 9.412-21.514 21.514 0 12.101 9.412 21.514 21.514 21.514s21.514-9.412 21.514-21.514-9.412-21.514-21.514-21.514z" fill="#ffffff" data-original="#000000" class=""></path></g></g></g></g></svg>